<svg width="59" height="59" viewBox="0 0 59 59" fill="none" xmlns="http://www.w3.org/2000/svg">
<path d="M37 39V37C37 35.9391 36.5786 34.9217 35.8284 34.1716C35.0783 33.4214 34.0609 33 33 33H25C23.9391 33 22.9217 33.4214 22.1716 34.1716C21.4214 34.9217 21 35.9391 21 37V39" stroke="white" stroke-width="2" stroke-linecap="round" stroke-linejoin="round"/>
<path d="M29 29C31.2091 29 33 27.2091 33 25C33 22.7909 31.2091 21 29 21C26.7909 21 25 22.7909 25 25C25 27.2091 26.7909 29 29 29Z" stroke="white" stroke-width="2" stroke-linecap="round" stroke-linejoin="round"/>
<circle cx="29.5" cy="29.5" r="29" stroke="#A3A3A3"/>
</svg>
